<mxfile host="Electron" modified="2024-11-03T05:46:13.767Z" agent="Mozilla/5.0 (Windows NT 10.0; Win64; x64) AppleWebKit/537.36 (KHTML, like Gecko) draw.io/23.1.5 Chrome/120.0.6099.109 Electron/28.1.0 Safari/537.36" etag="EGdPFlTLvxyeOdp3Zc8W" version="23.1.5" type="device">
  <diagram name="페이지-1" id="p3GMl5WiQeSoV2CXa2yT">
    <mxGraphModel dx="1050" dy="621" grid="1" gridSize="10" guides="1" tooltips="1" connect="1" arrows="1" fold="1" page="1" pageScale="1" pageWidth="827" pageHeight="1169" math="0" shadow="0">
      <root>
        <mxCell id="0" />
        <mxCell id="1" parent="0" />
        <mxCell id="sL2Eu6m0SKZJJF_nSa0I-3" value="" style="rounded=0;whiteSpace=wrap;html=1;" parent="1" vertex="1">
          <mxGeometry x="120" y="241.56" width="240" height="270" as="geometry" />
        </mxCell>
        <mxCell id="FXADy4RPEiYWd-jTaQnA-38" style="edgeStyle=orthogonalEdgeStyle;rounded=0;orthogonalLoop=1;jettySize=auto;html=1;entryX=0.25;entryY=1;entryDx=0;entryDy=0;" parent="1" source="sL2Eu6m0SKZJJF_nSa0I-4" target="sL2Eu6m0SKZJJF_nSa0I-5" edge="1">
          <mxGeometry relative="1" as="geometry" />
        </mxCell>
        <mxCell id="FXADy4RPEiYWd-jTaQnA-39" value="I2C" style="edgeLabel;html=1;align=center;verticalAlign=middle;resizable=0;points=[];" parent="FXADy4RPEiYWd-jTaQnA-38" vertex="1" connectable="0">
          <mxGeometry x="-0.3225" y="1" relative="1" as="geometry">
            <mxPoint x="10" y="12" as="offset" />
          </mxGeometry>
        </mxCell>
        <mxCell id="sL2Eu6m0SKZJJF_nSa0I-4" value="IMU 모듈" style="rounded=0;whiteSpace=wrap;html=1;" parent="1" vertex="1">
          <mxGeometry x="130" y="451.56" width="100" height="50" as="geometry" />
        </mxCell>
        <mxCell id="sL2Eu6m0SKZJJF_nSa0I-5" value="MCU&lt;br&gt;(데이터 처리)" style="rounded=0;whiteSpace=wrap;html=1;" parent="1" vertex="1">
          <mxGeometry x="190" y="371.56" width="100" height="50" as="geometry" />
        </mxCell>
        <mxCell id="FXADy4RPEiYWd-jTaQnA-40" style="edgeStyle=orthogonalEdgeStyle;rounded=0;orthogonalLoop=1;jettySize=auto;html=1;entryX=0.75;entryY=1;entryDx=0;entryDy=0;startArrow=classic;startFill=1;endArrow=none;endFill=0;" parent="1" source="sL2Eu6m0SKZJJF_nSa0I-6" target="sL2Eu6m0SKZJJF_nSa0I-5" edge="1">
          <mxGeometry relative="1" as="geometry" />
        </mxCell>
        <mxCell id="FXADy4RPEiYWd-jTaQnA-41" value="UART" style="edgeLabel;html=1;align=center;verticalAlign=middle;resizable=0;points=[];" parent="FXADy4RPEiYWd-jTaQnA-40" vertex="1" connectable="0">
          <mxGeometry x="-0.0792" y="-2" relative="1" as="geometry">
            <mxPoint x="-11" y="12" as="offset" />
          </mxGeometry>
        </mxCell>
        <mxCell id="2lR0sr7ZDougGMapx4bK-1" style="edgeStyle=orthogonalEdgeStyle;rounded=0;orthogonalLoop=1;jettySize=auto;html=1;entryX=0;entryY=0.5;entryDx=0;entryDy=0;" edge="1" parent="1" source="sL2Eu6m0SKZJJF_nSa0I-6" target="FXADy4RPEiYWd-jTaQnA-14">
          <mxGeometry relative="1" as="geometry" />
        </mxCell>
        <mxCell id="2lR0sr7ZDougGMapx4bK-2" value="UART" style="edgeLabel;html=1;align=center;verticalAlign=middle;resizable=0;points=[];" vertex="1" connectable="0" parent="2lR0sr7ZDougGMapx4bK-1">
          <mxGeometry x="0.2603" y="-3" relative="1" as="geometry">
            <mxPoint x="-22" y="24" as="offset" />
          </mxGeometry>
        </mxCell>
        <mxCell id="sL2Eu6m0SKZJJF_nSa0I-6" value="블루투스 모듈&lt;br&gt;(마스터)" style="rounded=0;whiteSpace=wrap;html=1;" parent="1" vertex="1">
          <mxGeometry x="250" y="451.56" width="100" height="50" as="geometry" />
        </mxCell>
        <mxCell id="sL2Eu6m0SKZJJF_nSa0I-12" value="&lt;b&gt;&lt;font style=&quot;font-size: 14px;&quot;&gt;에어 마우스 파트&lt;/font&gt;&lt;/b&gt;" style="text;html=1;align=center;verticalAlign=middle;whiteSpace=wrap;rounded=0;" parent="1" vertex="1">
          <mxGeometry x="120" y="211.56" width="110" height="30" as="geometry" />
        </mxCell>
        <mxCell id="FXADy4RPEiYWd-jTaQnA-8" value="" style="rounded=0;whiteSpace=wrap;html=1;" parent="1" vertex="1">
          <mxGeometry x="444.98999999999995" y="240" width="120" height="170" as="geometry" />
        </mxCell>
        <mxCell id="FXADy4RPEiYWd-jTaQnA-11" style="edgeStyle=orthogonalEdgeStyle;rounded=0;orthogonalLoop=1;jettySize=auto;html=1;entryX=0.5;entryY=1;entryDx=0;entryDy=0;startArrow=classic;startFill=1;endArrow=none;endFill=0;" parent="1" source="FXADy4RPEiYWd-jTaQnA-13" target="FXADy4RPEiYWd-jTaQnA-14" edge="1">
          <mxGeometry relative="1" as="geometry" />
        </mxCell>
        <mxCell id="FXADy4RPEiYWd-jTaQnA-12" value="UART&amp;nbsp;" style="edgeLabel;html=1;align=center;verticalAlign=middle;resizable=0;points=[];" parent="FXADy4RPEiYWd-jTaQnA-11" vertex="1" connectable="0">
          <mxGeometry x="0.2" y="1" relative="1" as="geometry">
            <mxPoint x="21" y="1" as="offset" />
          </mxGeometry>
        </mxCell>
        <mxCell id="FXADy4RPEiYWd-jTaQnA-13" value="MCU&lt;br&gt;(데이터를 PC로 전송)" style="rounded=0;whiteSpace=wrap;html=1;" parent="1" vertex="1">
          <mxGeometry x="454.98999999999995" y="340" width="100" height="60" as="geometry" />
        </mxCell>
        <mxCell id="FXADy4RPEiYWd-jTaQnA-14" value="블루투스 모듈&lt;br&gt;(슬레이브)" style="rounded=0;whiteSpace=wrap;html=1;" parent="1" vertex="1">
          <mxGeometry x="454.98999999999995" y="250" width="100" height="50" as="geometry" />
        </mxCell>
        <mxCell id="FXADy4RPEiYWd-jTaQnA-17" value="&lt;b&gt;&lt;font style=&quot;font-size: 14px;&quot;&gt;PC&lt;/font&gt;&lt;/b&gt;" style="shape=mxgraph.signs.tech.computer;html=1;pointerEvents=1;fillColor=#000000;strokeColor=none;verticalLabelPosition=bottom;verticalAlign=top;align=center;sketch=0;" parent="1" vertex="1">
          <mxGeometry x="468.55" y="441.56" width="72.91" height="70" as="geometry" />
        </mxCell>
        <mxCell id="FXADy4RPEiYWd-jTaQnA-19" value="&lt;b&gt;&lt;font style=&quot;font-size: 14px;&quot;&gt;블루투스 동글 파트&lt;/font&gt;&lt;/b&gt;" style="text;html=1;align=center;verticalAlign=middle;whiteSpace=wrap;rounded=0;" parent="1" vertex="1">
          <mxGeometry x="440.00000000000006" y="211.56" width="130" height="30" as="geometry" />
        </mxCell>
        <mxCell id="FXADy4RPEiYWd-jTaQnA-29" style="edgeStyle=orthogonalEdgeStyle;rounded=0;orthogonalLoop=1;jettySize=auto;html=1;entryX=0.25;entryY=0;entryDx=0;entryDy=0;" parent="1" source="FXADy4RPEiYWd-jTaQnA-21" target="sL2Eu6m0SKZJJF_nSa0I-5" edge="1">
          <mxGeometry relative="1" as="geometry" />
        </mxCell>
        <mxCell id="FXADy4RPEiYWd-jTaQnA-21" value="왼쪽 버튼&amp;nbsp; &amp;nbsp; &amp;nbsp;&amp;nbsp;" style="rounded=0;whiteSpace=wrap;html=1;" parent="1" vertex="1">
          <mxGeometry x="129.99" y="251.56" width="110.01" height="80" as="geometry" />
        </mxCell>
        <mxCell id="FXADy4RPEiYWd-jTaQnA-30" style="edgeStyle=orthogonalEdgeStyle;rounded=0;orthogonalLoop=1;jettySize=auto;html=1;entryX=0.75;entryY=0;entryDx=0;entryDy=0;" parent="1" source="FXADy4RPEiYWd-jTaQnA-22" target="sL2Eu6m0SKZJJF_nSa0I-5" edge="1">
          <mxGeometry relative="1" as="geometry" />
        </mxCell>
        <mxCell id="FXADy4RPEiYWd-jTaQnA-32" value="GPIO" style="edgeLabel;html=1;align=center;verticalAlign=middle;resizable=0;points=[];" parent="FXADy4RPEiYWd-jTaQnA-30" vertex="1" connectable="0">
          <mxGeometry x="-0.1388" y="-2" relative="1" as="geometry">
            <mxPoint x="27" y="-3" as="offset" />
          </mxGeometry>
        </mxCell>
        <mxCell id="FXADy4RPEiYWd-jTaQnA-22" value="&amp;nbsp; &amp;nbsp; &amp;nbsp; 오른쪽 버튼" style="rounded=0;whiteSpace=wrap;html=1;" parent="1" vertex="1">
          <mxGeometry x="240" y="251.56" width="110" height="80" as="geometry" />
        </mxCell>
        <mxCell id="FXADy4RPEiYWd-jTaQnA-31" style="edgeStyle=orthogonalEdgeStyle;rounded=0;orthogonalLoop=1;jettySize=auto;html=1;entryX=0.5;entryY=0;entryDx=0;entryDy=0;" parent="1" source="FXADy4RPEiYWd-jTaQnA-23" target="sL2Eu6m0SKZJJF_nSa0I-5" edge="1">
          <mxGeometry relative="1" as="geometry" />
        </mxCell>
        <mxCell id="FXADy4RPEiYWd-jTaQnA-34" value="TIM" style="edgeLabel;html=1;align=center;verticalAlign=middle;resizable=0;points=[];" parent="FXADy4RPEiYWd-jTaQnA-31" vertex="1" connectable="0">
          <mxGeometry x="-0.0795" relative="1" as="geometry">
            <mxPoint x="-13" y="-2" as="offset" />
          </mxGeometry>
        </mxCell>
        <mxCell id="FXADy4RPEiYWd-jTaQnA-23" value="휠" style="rounded=0;whiteSpace=wrap;html=1;" parent="1" vertex="1">
          <mxGeometry x="217.49" y="266.56" width="45.01" height="50" as="geometry" />
        </mxCell>
        <mxCell id="FXADy4RPEiYWd-jTaQnA-33" value="GPIO" style="edgeLabel;html=1;align=center;verticalAlign=middle;resizable=0;points=[];" parent="1" vertex="1" connectable="0">
          <mxGeometry x="167" y="346.5585714285714" as="geometry" />
        </mxCell>
        <mxCell id="2lR0sr7ZDougGMapx4bK-3" style="edgeStyle=orthogonalEdgeStyle;rounded=0;orthogonalLoop=1;jettySize=auto;html=1;entryX=0.5;entryY=0;entryDx=0;entryDy=0;entryPerimeter=0;" edge="1" parent="1" source="FXADy4RPEiYWd-jTaQnA-13" target="FXADy4RPEiYWd-jTaQnA-17">
          <mxGeometry relative="1" as="geometry" />
        </mxCell>
        <mxCell id="2lR0sr7ZDougGMapx4bK-4" value="USB HID" style="edgeLabel;html=1;align=center;verticalAlign=middle;resizable=0;points=[];" vertex="1" connectable="0" parent="2lR0sr7ZDougGMapx4bK-3">
          <mxGeometry x="-0.076" y="-2" relative="1" as="geometry">
            <mxPoint x="27" y="3" as="offset" />
          </mxGeometry>
        </mxCell>
      </root>
    </mxGraphModel>
  </diagram>
</mxfile>
